HIERARCHY
ROOT ui
{
	 OFFSET 0 0 0
	 CHANNELS 3 XPosition YPosition Z Position
	 EndSite
	 {
	 OFFSET 0 -1 0
	 }
}
ROOT li
{
	 OFFSET 0 0 0
	 CHANNELS 3 XPosition YPosition Z Position
	 EndSite
	 {
	 OFFSET 0 -1 0
	 }
}
ROOT ul
{
	 OFFSET 0 0 0
	 CHANNELS 3 XPosition YPosition Z Position
	 EndSite
	 {
	 OFFSET 0 -1 0
	 }
}
ROOT ll
{
	 OFFSET 0 0 0
	 CHANNELS 3 XPosition YPosition Z Position
	 EndSite
	 {
	 OFFSET 0 -1 0
	 }
}
ROOT tt
{
	 OFFSET 0 0 0
	 CHANNELS 3 XPosition YPosition Z Position
	 EndSite
	 {
	 OFFSET 0 -1 0
	 }
}
ROOT tb
{
	 OFFSET 0 0 0
	 CHANNELS 3 XPosition YPosition Z Position
	 EndSite
	 {
	 OFFSET 0 -1 0
	 }
}
ROOT td
{
	 OFFSET 0 0 0
	 CHANNELS 3 XPosition YPosition Z Position
	 EndSite
	 {
	 OFFSET 0 -1 0
	 }
}
ROOT v
{
	 OFFSET 0 0 0
	 CHANNELS 3 XPosition YPosition Z Position
	 EndSite
	 {
	 OFFSET 0 -1 0
	 }
}
ROOT bn
{
	 OFFSET 0 0 0
	 CHANNELS 3 XPosition YPosition Z Position
	 EndSite
	 {
	 OFFSET 0 -1 0
	 }
}
MOTION
Frames: 19
Frame Time: 0.002
0.024366226196289063	-0.007609834194183349	0		0.524480712890625	-2.302944580078125	0		-1.041700439453125	0.279511962890625	0		-0.6122806396484375	-2.37010546875	0		1.690233642578125	-0.3169815368652344	0		3.22251513671875	-0.2979437255859375	0		4.5374541015625	-0.31064337158203126	0		5.934654296875	0.32990914916992187	0		-0.2135682373046875	5.9511923828125	0		
-0.019534721374511718	0.002877202033996582	0		0.5384325561523438	-2.302073486328125	0		-0.9687476196289062	0.27480157470703126	0		-0.54746875	-2.3827412109375	0		1.7081658935546875	-0.3221772766113281	0		3.21360595703125	-0.287891845703125	0		4.5315234375	-0.30265139770507815	0		5.94316943359375	0.3208680725097656	0		-0.18038511657714842	5.956880859375	0		
-0.01954094123840332	0.0028911330699920653	0		0.5114199829101562	-2.299784423828125	0		-1.047652099609375	0.2846525573730469	0		-0.5915755004882812	-2.389260498046875	0		1.6902088623046876	-0.3169970397949219	0		3.20375341796875	-0.27281451416015623	0		4.5374296875	-0.3107564697265625	0		5.9367080078125	0.31227645874023435	0		-0.21436753845214843	5.95225244140625	0		
-0.004683950901031494	-0.010268986701965332	0		0.5203224487304687	-2.3078837890625	0		-0.9967648315429688	0.2741190795898438	0		-0.5230425415039063	-2.432981689453125	0		1.705106689453125	-0.32616265869140626	0		3.205704345703125	-0.2768492126464844	0		4.545390625	-0.31385809326171876	0		5.956154296875	0.35672665405273435	0		-0.21336585998535157	5.95123876953125	0		
-0.00660476016998291	-0.0022726891040802002	0		0.4994373779296875	-2.297685791015625	0		-1.0166027221679688	0.2902970886230469	0		-0.54909375	-2.438737060546875	0		1.706114501953125	-0.32518707275390624	0		3.231076171875	-0.24111727905273436	0		4.5445341796875	-0.2998452453613281	0		5.960482421875	0.36874789428710936	0		-0.2313738555908203	5.9544013671875	0		
0.019384368896484375	-0.003589629888534546	0		0.5534169921875	-2.303287353515625	0		-0.978608154296875	0.28983999633789065	0		-0.5211732177734375	-2.450082275390625	0		1.709161865234375	-0.3212390747070312	0		3.197030517578125	-0.24576028442382813	0		4.5555390625	-0.299938720703125	0		5.961873046875	0.3601357727050781	0		-0.21349282836914063	5.95116455078125	0		
-0.006593341827392578	-0.002385910987854004	0		0.486567138671875	-2.294644775390625	0		-1.0166023559570312	0.29014581298828124	0		-0.5671978759765625	-2.45868212890625	0		1.7061380615234376	-0.32523580932617185	0		3.2201494140625	-0.23599435424804688	0		4.54455712890625	-0.299787109375	0		5.96327001953125	0.3515711975097656	0		-0.22972215270996094	5.94125927734375	0		
0.006480662822723388	0.00238995099067688	0		0.5406051635742187	-2.300279052734375	0		-1.0065890502929689	0.2899222412109375	0		-0.542236328125	-2.472047119140625	0		1.711108154296875	-0.331323974609375	0		3.2082421875	-0.22986041259765624	0		4.5445888671875	-0.2997369384765625	0		5.97687548828125	0.36004263305664064	0		-0.21476759338378906	5.95200732421875	0		
-0.0046161627769470215	-0.010604439735412597	0		0.4936690368652344	-2.30588134765625	0		-1.0015216674804688	0.29372344970703124	0		-0.5313966674804688	-2.500288818359375	0		1.728949951171875	-0.35155401611328124	0		3.231472900390625	-0.21208808898925782	0		4.55175048828125	-0.2887486267089844	0		5.9805361328125	0.37572335815429686	0		-0.24901390075683594	5.9462421875	0		
0.010601557731628419	0.005112013816833496	0		0.4978743896484375	-2.301029052734375	0		-0.9923992919921875	0.3014585266113281	0		-0.5732730712890625	-2.50400732421875	0		1.68504150390625	-0.3491533203125	0		3.214577392578125	-0.20789988708496093	0		4.56281591796875	-0.2887908935546875	0		5.99275830078125	0.38949319458007814	0		-0.2492206573486328	5.946103515625	0		
-0.015316304206848144	0.006234087944030762	0		0.49117169189453125	-2.290078369140625	0		-0.9923433837890625	0.30126470947265627	0		-0.5472135009765625	-2.5174462890625	0		1.7210250244140626	-0.35958367919921874	0		3.23971875	-0.20214295959472656	0		4.554962890625	-0.28262924194335937	0		5.99196484375	0.3586360168457031	0		-0.21538320922851562	5.95159716796875	0		
0.01966911315917969	-0.0042831249237060545	0		0.539260498046875	-2.30270068359375	0		-0.9922702026367187	0.3010509033203125	0		-0.53828369140625	-2.54672607421875	0		1.69913525390625	-0.3594261474609375	0		3.231931884765625	-0.19104643249511719	0		4.563005859375	-0.2886236877441406	0		5.99930810546875	0.3933462219238281	0		-0.21660594177246092	5.952435546875	0		
-0.009250249862670899	-0.007161526203155517	0		0.4855576171875	-2.297295654296875	0		-0.9871381225585938	0.30476840209960937	0		-0.5172093505859375	-2.565143310546875	0		1.6850938720703126	-0.3763578796386719	0		3.211124267578125	-0.18381900024414063	0		4.555193359375	-0.28245034790039064	0		6.007384765625	0.4297906494140625	0		-0.21783377075195312	5.95325927734375	0		
0.006969573974609375	0.0014906339645385741	0		0.5217159423828125	-2.3088134765625	0		-0.961008544921875	0.3062599182128906	0		-0.5620001831054687	-2.57290673828125	0		1.6751160888671874	-0.3893382568359375	0		3.2161943359375	-0.19085684204101563	0		4.559400390625	-0.27639596557617185	0		6.01727587890625	0.384892578125	0		-0.25014993286132814	5.94538330078125	0		
-9.806680083274842E-4	-0.008623108863830567	0		0.5080034484863282	-2.309834716796875	0		-1.029784912109375	0.31569427490234375	0		-0.5129693603515625	-2.601626708984375	0		1.655181396484375	-0.40022543334960936	0		3.25169482421875	-0.15719868469238282	0		4.56060791015625	-0.27231024169921875	0		6.01822509765625	0.41634579467773436	0		-0.21632110595703125	5.95083154296875	0		
0.02426706314086914	-0.0010726439952850342	0		0.5533495483398437	-2.307449951171875	0		-0.9466008911132813	0.31860128784179687	0		-0.5356705932617187	-2.60563134765625	0		1.6572666015625	-0.411337890625	0		3.228775390625	-0.1669590606689453	0		4.56281396484375	-0.2702350769042969	0		6.0112001953125	0.4133914489746094	0		-0.26866464233398435	5.93813525390625	0		
-0.014485910415649414	0.005112546920776367	0		0.5137457885742187	-2.301220703125	0		-0.9464357299804688	0.31833856201171873	0		-0.4825660400390625	-2.63139013671875	0		1.661271240234375	-0.43247079467773436	0		3.228971923828125	-0.16695182800292968	0		4.567076171875	-0.26418142700195313	0		6.01133251953125	0.4137202453613281	0		-0.24991317749023437	5.93272900390625	0		
0.01758322334289551	-0.008399810791015625	0		0.5459414672851562	-2.316699462890625	0		-1.0242535400390624	0.3188466796875	0		-0.5573834838867188	-2.649881103515625	0		1.6573109130859376	-0.4515231018066406	0		3.22918115234375	-0.1669449462890625	0		4.55629248046875	-0.263981689453125	0		6.01511181640625	0.43125650024414064	0		-0.26519793701171873	5.9216630859375	0		
-0.014081351280212403	0.004723830223083496	0		0.49234097290039064	-2.31132861328125	0		-1.01407666015625	0.3174974365234375	0		-0.48526242065429687	-2.6758056640625	0		1.63137060546875	-0.4693563232421875	0		3.2336513671875	-0.14097694396972657	0		4.56854345703125	-0.26100955200195314	0		6.029412109375	0.40355401611328123	0		-0.2502467193603516	5.932310546875	0		
